<?xml version="1.0" encoding="utf-8" ?>
<svg baseProfile="full" height="200mm" version="1.1" viewBox="0,0,200,200" width="200mm" xmlns="http://www.w3.org/2000/svg" xmlns:ev="http://www.w3.org/2001/xml-events" xmlns:xlink="http://www.w3.org/1999/xlink"><defs /><rect fill="#1a1a1a" height="200" width="200" x="0" y="0" /><text alignment-baseline="middle" fill="#e1ed5e" style="dominant-baseline: central; font-size:9.0px; font-family:Arial;" text-anchor="middle" x="100.0" y="100.0">2024</text><line stroke="#e1ed5e" stroke-width="0.3" x1="100.0" x2="100.0" y1="15.0" y2="10.0" /><path d="M 100.0 14.0 a86.0,86.0 0 0,1 42.35913384403234,11.155469271406648" fill="none" id="id13" stroke="none" /><text fill="#e1ed5e" style="font-size:6.75px; font-family:Arial;" text-anchor="middle"><textPath startOffset="22.145653131862478" xlink:href="#id13">January</textPath></text><path d="M 101.80034050326958 79.07731436759882 l 3.760590493829574 -43.70376190042912 a64.86525783705918,64.86525783705918 0 0,0 1.1085794932792499,0.1049836305992984 l -4.510269550493837 43.632766514324636" fill="#33ff51" stroke="none" /><line stroke="#e1ed5e" stroke-width="0.3" x1="143.13028292997686" x2="145.6673583964461" y1="26.7553504044142" y2="22.446841604673864" /><path d="M 143.63769802327073 25.89364864446614 a86.0,86.0 0 0,1 29.32050498858742,28.57503671076993" fill="none" id="id14" stroke="none" /><text fill="#e1ed5e" style="font-size:6.75px; font-family:Arial;" text-anchor="middle"><textPath startOffset="20.669276256404974" xlink:href="#id14">February</textPath></text><line stroke="#e1ed5e" stroke-width="0.3" x1="172.87174338648825" x2="177.1583165268699" y1="56.24261187166439" y2="53.66864786411523" /><path d="M 173.72905801456457 55.72781907015455 a86.0,86.0 0 0,1 12.242430191666344,42.057860355516425" fill="none" id="id15" stroke="none" /><text fill="#e1ed5e" style="font-size:6.75px; font-family:Arial;" text-anchor="middle"><textPath startOffset="22.145653131862474" xlink:href="#id15">March</textPath></text><path d="M 120.98066250479742 99.09900007780936 l 30.948986914593785 -1.3290826634074124 a51.9775120331809,51.9775120331809 0 0,0 0.03063038002550982,0.8917700937665786 l -30.96724198161614 0.7976063050767139" fill="#a5ff21" stroke="none" /><line stroke="#e1ed5e" stroke-width="0.3" x1="184.99686870605535" x2="189.99668451229388" y1="99.2704041080226" y2="99.22748670261217" /><path d="M 185.99683186730306 99.26182062694052 a86.0,86.0 0 0,1 -10.086455211305974,41.156179273409016" fill="none" id="id16" stroke="none" /><text fill="#e1ed5e" style="font-size:6.75px; font-family:Arial;" text-anchor="middle"><textPath startOffset="21.40746469413373" xlink:href="#id16">April</textPath></text><path d="M 120.99303781780057 100.54070618675476 l 6.566509378988259 0.1691299885903822 a27.56868711215425,27.56868711215425 0 0,0 -0.01624624438566343,0.47299167908101497 l -6.56263844760575 -0.2818279322355079" fill="#ff0000" stroke="none" /><path d="M 120.98066250479742 100.90099992219065 l 10.123139867127591 0.4347311830844891 a31.13247018110461,31.13247018110461 0 0,0 -0.027512817278664222,0.5337413050978811 l -10.114185460392353 -0.6084442815591008" fill="#ff3805" stroke="none" /><path d="M 120.96210409425399 101.26102812881392 l 17.560537349470508 1.0563983202831104 a38.59228380322594,38.59228380322594 0 0,0 -0.045458106232637525,0.6609508879396205 l -17.539815282072805 -1.3576926323770744" fill="#ffa80f" stroke="none" /><path d="M 120.592083275326 104.11899336999214 l 50.92537765301753 10.186501778985447 a72.93417860711509,72.93417860711509 0 0,0 -0.2561111090301586,1.2255843699744082 l -50.743008833163 -11.059202600245264" fill="#3effb5" stroke="none" /><path d="M 120.16314734710363 105.8691983318838 l 10.534668369947251 3.0664884285897496 a31.971899969806593,31.971899969806593 0 0,0 -0.1579163391116277,0.5256521333968143 l -10.480475710831994 -3.246878165577287" fill="#ff4506" stroke="none" /><path d="M 119.94978838288452 106.5578916946017 l 21.055618512008447 6.921400022622037 a43.164044062318254,43.164044062318254 0 0,0 -0.23743220729002645,0.7019261319145352 l -20.933700883146056 -7.281827829010733" fill="#ffe715" stroke="none" /><path d="M 119.16976305983485 108.57439118712176 l 12.24768989562076 5.478235905984935 a34.41704052393498,34.41704052393498 0 0,0 -0.24586146439539652,0.5372516706337821 l -12.151843966370306 -5.687676558833406" fill="#ff6a09" stroke="none" /><path d="M 119.0197475246899 108.90220220490707 l 23.07354066744941 10.79958208373379 a46.47585625873536,46.47585625873536 0 0,0 -0.34440986847299365,0.7196841624361929 l -22.884751541016506 -11.194078748235087" fill="#eaff1a" stroke="none" /><line stroke="#e1ed5e" stroke-width="0.3" x1="174.33088141563837" x2="178.70328620479359" y1="141.23008692659167" y2="143.65538615756765" /><path d="M 175.20536237346943 141.71514677278685 a86.0,86.0 0 0,1 -30.301960400862466,31.631185727798858" fill="none" id="id17" stroke="none" /><text fill="#e1ed5e" style="font-size:6.75px; font-family:Arial;" text-anchor="middle"><textPath startOffset="22.145653131862474" xlink:href="#id17">May</textPath></text><path d="M 118.00360718960297 110.81064883170644 l 14.680252813817068 8.81507001677404 a38.12353007058453,38.12353007058453 0 0,0 -0.3417176032062722,0.5581700237625756 l -14.52676724615539 -9.065777156661172" fill="#ffa10e" stroke="none" /><path d="M 117.81537515405839 111.11811171558189 l 53.44612546217515 33.35433514674567 a84.0,84.0 0 0,0 -0.7739292334964403,1.2167453012853122 l -52.865678537052815 -34.26689412270965" fill="#4dd2ff" stroke="none" /><path d="M 115.6541949942343 113.99807769240083 l 12.251301000776197 10.95518890016494 a37.4350400075545,37.4350400075545 0 0,0 -0.43246794166233016,0.4753580251195255 l -12.061435358271986 -11.163884500842137" fill="#ff970d" stroke="none" /><path d="M 115.41159269507618 114.26474011684316 l 8.03118828281655 7.4335479758957925 a31.943382509260758,31.943382509260758 0 0,0 -0.3759343160902374,0.3992292160864316 l -7.902398132990053 -7.570318651926722" fill="#ff4506" stroke="none" /><path d="M 114.65682725009322 115.03919595460226 l 22.32324577789606 22.905616738738 a52.98428645823303,52.98428645823303 0 0,0 -0.6568222658034292,0.6292208727189349 l -21.92675102622732 -23.285449741762516" fill="#99ff23" stroke="none" /><line stroke="#e1ed5e" stroke-width="0.3" x1="143.1302829299769" x2="145.66735839644613" y1="173.24464959558577" y2="177.55315839532614" /><path d="M 143.63769802327073 174.10635135553383 a86.0,86.0 0 0,1 -40.68552437913181,11.842963189579606" fill="none" id="id18" stroke="none" /><text fill="#e1ed5e" style="font-size:6.75px; font-family:Arial;" text-anchor="middle"><textPath startOffset="21.407464694133747" xlink:href="#id18">June</textPath></text><line stroke="#e1ed5e" stroke-width="0.3" x1="101.45913802915013" x2="101.54496967792366" y1="184.9874750549273" y2="189.98673829345242" /><path d="M 101.47630435890484 185.9873277026323 a86.0,86.0 0 0,1 -42.54439059252881,-10.42667462771756" fill="none" id="id19" stroke="none" /><text fill="#e1ed5e" style="font-size:6.75px; font-family:Arial;" text-anchor="middle"><textPath startOffset="22.145653131862474" xlink:href="#id19">July</textPath></text><line stroke="#e1ed5e" stroke-width="0.3" x1="58.13341422392154" x2="55.67067388415222" y1="173.97424548756322" y2="178.32567169271397" /><path d="M 57.64086615596768 174.84453072859336 a86.0,86.0 0 0,1 -31.369924170532247,-30.572349798747897" fill="none" id="id20" stroke="none" /><text fill="#e1ed5e" style="font-size:6.75px; font-family:Arial;" text-anchor="middle"><textPath startOffset="22.145653131862474" xlink:href="#id20">August</textPath></text><line stroke="#e1ed5e" stroke-width="0.3" x1="26.387840678322732" x2="22.057713659400548" y1="142.50000000000003" y2="145.00000000000006" /><path d="M 25.521815274538298 143.00000000000003 a86.0,86.0 0 0,1 -11.493303480769221,-40.785679425670985" fill="none" id="id21" stroke="none" /><text fill="#e1ed5e" style="font-size:6.75px; font-family:Arial;" text-anchor="middle"><textPath startOffset="21.40746469413373" xlink:href="#id21">September</textPath></text><line stroke="#e1ed5e" stroke-width="0.3" x1="15.003131293944662" x2="10.003315487706104" y1="100.72959589197737" y2="100.7725132973878" /><path d="M 14.003168132696942 100.73817937305945 a86.0,86.0 0 0,1 10.791469493833604,-42.45332614584628" fill="none" id="id22" stroke="none" /><text fill="#e1ed5e" style="font-size:6.75px; font-family:Arial;" text-anchor="middle"><textPath startOffset="22.145653131862435" xlink:href="#id22">October</textPath></text><line stroke="#e1ed5e" stroke-width="0.3" x1="26.387840678322718" x2="22.05771365940052" y1="57.49999999999999" y2="54.99999999999999" /><path d="M 25.521815274538284 56.99999999999999 a86.0,86.0 0 0,1 29.574782752854787,-30.34633250058573" fill="none" id="id23" stroke="none" /><text fill="#e1ed5e" style="font-size:6.75px; font-family:Arial;" text-anchor="middle"><textPath startOffset="21.40746469413373" xlink:href="#id23">November</textPath></text><line stroke="#e1ed5e" stroke-width="0.3" x1="56.869717070023135" x2="54.33264160355391" y1="26.7553504044142" y2="22.446841604673864" /><path d="M 56.362301976729285 25.89364864446614 a86.0,86.0 0 0,1 42.16139366436587,-11.88097634709845" fill="none" id="id24" stroke="none" /><text fill="#e1ed5e" style="font-size:6.75px; font-family:Arial;" text-anchor="middle"><textPath startOffset="22.145653131862474" xlink:href="#id24">December</textPath></text></svg>