<?xml version="1.0" encoding="utf-8" ?>
<svg baseProfile="full" height="200mm" version="1.1" viewBox="0,0,200,200" width="200mm" xmlns="http://www.w3.org/2000/svg" xmlns:ev="http://www.w3.org/2001/xml-events" xmlns:xlink="http://www.w3.org/1999/xlink"><defs /><rect fill="#1a1a1a" height="200" width="200" x="0" y="0" /><text alignment-baseline="middle" fill="#e1ed5e" style="dominant-baseline: central; font-size:9.0px; font-family:Arial;" text-anchor="middle" x="100.0" y="100.0">2024</text><line stroke="#e1ed5e" stroke-width="0.3" x1="100.0" x2="100.0" y1="15.0" y2="10.0" /><path d="M 100.0 14.0 a86.0,86.0 0 0,1 42.35913384403234,11.155469271406648" fill="none" id="id13" stroke="none" /><text fill="#e1ed5e" style="font-size:6.75px; font-family:Arial;" text-anchor="middle"><textPath startOffset="22.145653131862478" xlink:href="#id13">January</textPath></text><path d="M 101.80034050326958 79.07731436759882 l 4.752292209807456 -55.22883907712755 a76.43292295247156,76.43292295247156 0 0,0 1.306276639019129,0.12370575584581237 l -5.699668412211597 55.139121565776556" fill="#43ffe0" stroke="none" /><line stroke="#e1ed5e" stroke-width="0.3" x1="143.13028292997686" x2="145.6673583964461" y1="26.7553504044142" y2="22.446841604673864" /><path d="M 143.63769802327073 25.89364864446614 a86.0,86.0 0 0,1 29.32050498858742,28.57503671076993" fill="none" id="id14" stroke="none" /><text fill="#e1ed5e" style="font-size:6.75px; font-family:Arial;" text-anchor="middle"><textPath startOffset="20.669276256404974" xlink:href="#id14">February</textPath></text><line stroke="#e1ed5e" stroke-width="0.3" x1="172.87174338648825" x2="177.1583165268699" y1="56.24261187166439" y2="53.66864786411523" /><path d="M 173.72905801456457 55.72781907015455 a86.0,86.0 0 0,1 12.242430191666344,42.057860355516425" fill="none" id="id15" stroke="none" /><text fill="#e1ed5e" style="font-size:6.75px; font-family:Arial;" text-anchor="middle"><textPath startOffset="22.145653131862474" xlink:href="#id15">March</textPath></text><path d="M 120.98066250479742 99.09900007780936 l 39.11051460056219 -1.6795737791351857 a60.14656205084103,60.14656205084103 0 0,0 0.03544440625917398,1.0319252149963551 l -39.13358369381821 1.0079422995747105" fill="#3cff2e" stroke="none" /><line stroke="#e1ed5e" stroke-width="0.3" x1="184.99686870605535" x2="189.99668451229388" y1="99.2704041080226" y2="99.22748670261217" /><path d="M 185.99683186730306 99.26182062694052 a86.0,86.0 0 0,1 -10.086455211305974,41.156179273409016" fill="none" id="id16" stroke="none" /><text fill="#e1ed5e" style="font-size:6.75px; font-family:Arial;" text-anchor="middle"><textPath startOffset="21.40746469413373" xlink:href="#id16">April</textPath></text><path d="M 120.99922638620191 100.18025310272382 l 8.300603501676097 0.07125069791335226 a29.300909296817466,29.300909296817466 0 0,0 -0.008634794352598526,0.5029334819499226 l -8.298157275724831 -0.21373109583234587" fill="#ff3d05" stroke="none" /><path d="M 120.98066250479742 100.90099992219065 l 12.792703382162498 0.5493737268449373 a33.804494184298704,33.804494184298704 0 0,0 -0.02987417529929128,0.579551019856181 l -12.781387617406635 -0.768896540077849" fill="#ff7f0b" stroke="none" /><path d="M 120.96210409425399 101.26102812881392 l 22.19140982855007 1.3349801091537363 a43.231528109207986,43.231528109207986 0 0,0 -0.05092270277156695,0.7404049223015712 l -22.165223164613437 -1.7157284556096508" fill="#fffe18" stroke="none" /><path d="M 120.65975698304385 103.76489593502545 l 4.188778880211543 0.763335047540594 a25.25776336849643,25.25776336849643 0 0,0 -0.08139459503838155,0.42589091532286166 l -4.175057992891002 -0.8351285278967702" fill="#ff0000" stroke="none" /><path d="M 120.592083275326 104.11899336999214 l 60.179802207663876 12.037645875190412 a82.3719277191945,82.3719277191945 0 0,0 -0.28925211970587567,1.3841761032386255 l -59.96429237713364 -13.068938429714446" fill="#4be2ff" stroke="none" /><path d="M 120.26092885502905 105.52220625578681 l 13.377316095286538 3.6460469880527056 a34.865289198293,34.865289198293 0 0,0 -0.16234193105071223,0.5760942420303666 l -13.312755672161247 -3.8751491539860807" fill="#ff8e0d" stroke="none" /><path d="M 120.05942366710727 106.21446072829308 l 26.754402354212104 8.288582239370964 a49.008902885866235,49.008902885866235 0 0,0 -0.25586214273032665,0.801484517896104 l -26.608175495704522 -8.746635790958452" fill="#b8ff1f" stroke="none" /><path d="M 119.31412917781788 108.2440532568976 l 15.594076535343023 6.656183991828814 a37.95523542517809,37.95523542517809 0 0,0 -0.26092619026024305,0.5970501862630413 l -15.477516463065813 -6.9228962478677" fill="#ffb811" stroke="none" /><path d="M 119.16976305983485 108.57439118712176 l 25.335187469716413 11.332107104629266 a48.75406953144826,48.75406953144826 0 0,0 -0.34827942053590555,0.7610533882990419 l -25.13692358432545 -11.765349475142996" fill="#bbff1f" stroke="none" /><path d="M 119.0197475246899 108.90220220490707 l 4.021318384991373 1.8821800524445822 a25.44000037199209,25.44000037199209 0 0,0 -0.18852341597092975,0.393941431830045 l -3.988415711060531 -1.9509339863397306" fill="#ff0300" stroke="none" /><line stroke="#e1ed5e" stroke-width="0.3" x1="174.33088141563837" x2="178.70328620479359" y1="141.23008692659167" y2="143.65538615756765" /><path d="M 175.20536237346943 141.71514677278685 a86.0,86.0 0 0,1 -30.301960400862466,31.631185727798858" fill="none" id="id17" stroke="none" /><text fill="#e1ed5e" style="font-size:6.75px; font-family:Arial;" text-anchor="middle"><textPath startOffset="22.145653131862474" xlink:href="#id17">May</textPath></text><path d="M 118.18653347947321 110.5 l 18.740062085043768 10.819579889430313 a42.63915977886064,42.63915977886064 0 0,0 -0.37142015721576715,0.630752627154654 l -18.551568217698236 -11.139683684878518" fill="#fff617" stroke="none" /><path d="M 118.00360718960297 110.81064883170644 l 28.067638550705485 16.85381050094075 a53.739017428974094,53.739017428974094 0 0,0 -0.4816859351820133,0.7867977750164318 l -27.77418465106807 -17.33314539208174" fill="#81ff25" stroke="none" /><path d="M 117.81537515405839 111.11811171558189 l 39.766167348183025 24.817029518287 a67.87465220857885,67.87465220857885 0 0,0 -0.6253592566383678,0.9831686208471793 l -39.33429039991877 -25.49601181381285" fill="#38ff80" stroke="none" /><path d="M 115.89218393027572 113.72728997021213 l 15.717452138480626 13.576360810097352 a41.76910866097475,41.76910866097475 0 0,0 -0.473361225220172,0.5385981805789495 l -15.482079849301869 -13.844171268487594" fill="#ffeb16" stroke="none" /><path d="M 115.6541949942343 113.99807769240083 l 10.308847544755007 9.218235042028393 a34.829251425550176,34.829251425550176 0 0,0 -0.4023645939902241,0.44226917269755367 l -10.149085249922903 -9.393841790283618" fill="#ff8d0d" stroke="none" /><path d="M 114.91283532996324 114.78537596483092 l 28.70282789377977 28.45750605256739 a61.41883199489876,61.41883199489876 0 0,0 -0.7487484403273482,0.7423489194625117 l -28.210087533322458 -28.946034982258563" fill="#2fff30" stroke="none" /><path d="M 114.13192950727249 115.5334660781643 l 14.63350273678631 16.084782920097226 a42.74533614212905,42.74533614212905 0 0,0 -0.5470079410276545,0.4891378738852776 l -14.355229768935278 -16.33361632386589" fill="#fff817" stroke="none" /><path d="M 113.86319453409587 115.77377054828091 l 14.891020814262774 16.943248179642968 a43.556953689888665,43.556953689888665 0 0,0 -0.5658681316962206,0.48878341471356335 l -14.597973202803697 -17.19637572682125" fill="#fcff18" stroke="none" /><path d="M 113.59037401385872 116.0094264158162 l 15.083221149057742 17.767996587369908 a44.306764317686216,44.306764317686216 0 0,0 -0.5840595015893084,0.48724320902180623 l -14.775987313306539 -18.024301980303584" fill="#f2ff19" stroke="none" /><path d="M 112.7482090630111 116.68781488649013 l 27.880379309246177 36.49631148800249 a66.92707592103753,66.92707592103753 0 0,0 -0.9189629667987329,0.6896069423890108 l -27.24976335353668 -36.96953745765552" fill="#37ff74" stroke="none" /><path d="M 112.45986205192187 116.90419585922612 l 14.541969638209324 19.72897468036521 a45.50920894066337,45.50920894066337 0 0,0 -0.6328358673110717,0.4581243650227477 l -14.201152760524284 -19.975699816761033" fill="#e3ff1b" stroke="none" /><path d="M 112.16784306229584 117.11559508785304 l 13.942657666890522 19.61209409533769 a45.06308246298634,45.06308246298634 0 0,0 -0.6343270658524038,0.4428095562875486 l -13.60393550986436 -19.848548467430362" fill="#e9ff1a" stroke="none" /><path d="M 111.27062007382361 117.71928675628689 l 11.247789080560324 17.683392642749826 a41.95746011706645,41.95746011706645 0 0,0 -0.611052208032086,0.38134177103792527 l -10.942572743738523 -17.8738702106293" fill="#ffed16" stroke="none" /><line stroke="#e1ed5e" stroke-width="0.3" x1="143.1302829299769" x2="145.66735839644613" y1="173.24464959558577" y2="177.55315839532614" /><path d="M 143.63769802327073 174.10635135553383 a86.0,86.0 0 0,1 -40.68552437913181,11.842963189579606" fill="none" id="id18" stroke="none" /><text fill="#e1ed5e" style="font-size:6.75px; font-family:Arial;" text-anchor="middle"><textPath startOffset="21.407464694133747" xlink:href="#id18">June</textPath></text><path d="M 110.34350942703117 118.27599006163325 l 20.094653203859085 35.50532677873772 a61.797344485251905,61.797344485251905 0 0,0 -0.9277129526426471,0.5145867363861759 l -19.482196063060346 -35.84504643055704" fill="#30ff35" stroke="none" /><path d="M 109.71004243097381 118.62028667847754 l 10.231610344806718 19.620461924559372 a43.12799982784345,43.12799982784345 0 0,0 -0.659391748888659,0.33669012533477244 l -9.893291374204477 -19.793210001566983" fill="#fffd17" stroke="none" /><path d="M 108.73861861582097 119.09545874513695 l 9.170096058866859 20.03831482747279 a43.03689458280729,43.03689458280729 0 0,0 -0.6744221519008169,0.3016604502417818 l -8.824760504110415 -20.19277902862442" fill="#fffb17" stroke="none" /><path d="M 108.07796709384702 119.3841803445677 l 24.233901281541076 58.15254103370309 a84.0,84.0 0 0,0 -1.3357821552382365,0.5432509736828348 l -23.232064665112397 -58.55997926396521" fill="#4dd2ff" stroke="none" /><line stroke="#e1ed5e" stroke-width="0.3" x1="101.45913802915013" x2="101.54496967792366" y1="184.9874750549273" y2="189.98673829345242" /><path d="M 101.47630435890484 185.9873277026323 a86.0,86.0 0 0,1 -42.54439059252881,-10.42667462771756" fill="none" id="id19" stroke="none" /><text fill="#e1ed5e" style="font-size:6.75px; font-family:Arial;" text-anchor="middle"><textPath startOffset="22.145653131862474" xlink:href="#id19">July</textPath></text><line stroke="#e1ed5e" stroke-width="0.3" x1="58.13341422392154" x2="55.67067388415222" y1="173.97424548756322" y2="178.32567169271397" /><path d="M 57.64086615596768 174.84453072859336 a86.0,86.0 0 0,1 -31.369924170532247,-30.572349798747897" fill="none" id="id20" stroke="none" /><text fill="#e1ed5e" style="font-size:6.75px; font-family:Arial;" text-anchor="middle"><textPath startOffset="22.145653131862474" xlink:href="#id20">August</textPath></text><line stroke="#e1ed5e" stroke-width="0.3" x1="26.387840678322732" x2="22.057713659400548" y1="142.50000000000003" y2="145.00000000000006" /><path d="M 25.521815274538298 143.00000000000003 a86.0,86.0 0 0,1 -11.493303480769221,-40.785679425670985" fill="none" id="id21" stroke="none" /><text fill="#e1ed5e" style="font-size:6.75px; font-family:Arial;" text-anchor="middle"><textPath startOffset="21.40746469413373" xlink:href="#id21">September</textPath></text><line stroke="#e1ed5e" stroke-width="0.3" x1="15.003131293944662" x2="10.003315487706104" y1="100.72959589197737" y2="100.7725132973878" /><path d="M 14.003168132696942 100.73817937305945 a86.0,86.0 0 0,1 10.791469493833604,-42.45332614584628" fill="none" id="id22" stroke="none" /><text fill="#e1ed5e" style="font-size:6.75px; font-family:Arial;" text-anchor="middle"><textPath startOffset="22.145653131862435" xlink:href="#id22">October</textPath></text><line stroke="#e1ed5e" stroke-width="0.3" x1="26.387840678322718" x2="22.05771365940052" y1="57.49999999999999" y2="54.99999999999999" /><path d="M 25.521815274538284 56.99999999999999 a86.0,86.0 0 0,1 29.574782752854787,-30.34633250058573" fill="none" id="id23" stroke="none" /><text fill="#e1ed5e" style="font-size:6.75px; font-family:Arial;" text-anchor="middle"><textPath startOffset="21.40746469413373" xlink:href="#id23">November</textPath></text><line stroke="#e1ed5e" stroke-width="0.3" x1="56.869717070023135" x2="54.33264160355391" y1="26.7553504044142" y2="22.446841604673864" /><path d="M 56.362301976729285 25.89364864446614 a86.0,86.0 0 0,1 42.16139366436587,-11.88097634709845" fill="none" id="id24" stroke="none" /><text fill="#e1ed5e" style="font-size:6.75px; font-family:Arial;" text-anchor="middle"><textPath startOffset="22.145653131862474" xlink:href="#id24">December</textPath></text></svg>