<?xml version="1.0" encoding="utf-8" ?>
<svg baseProfile="full" height="200mm" version="1.1" viewBox="0,0,200,200" width="200mm" xmlns="http://www.w3.org/2000/svg" xmlns:ev="http://www.w3.org/2001/xml-events" xmlns:xlink="http://www.w3.org/1999/xlink"><defs /><rect fill="#1a1a1a" height="200" width="200" x="0" y="0" /><text alignment-baseline="middle" fill="#e1ed5e" style="dominant-baseline: central; font-size:9.0px; font-family:Arial;" text-anchor="middle" x="100.0" y="100.0">2023</text><line stroke="#e1ed5e" stroke-width="0.3" x1="100.0" x2="100.0" y1="15.0" y2="10.0" /><path d="M 100.0 14.0 a86.0,86.0 0 0,1 42.46469731375804,11.215312516191453" fill="none" id="id1" stroke="none" /><text fill="#e1ed5e" style="font-size:6.75px; font-family:Arial;" text-anchor="middle"><textPath startOffset="22.20632615414155" xlink:href="#id1">January</textPath></text><line stroke="#e1ed5e" stroke-width="0.3" x1="143.23703022742887" x2="145.7803849466894" y1="26.81831364943548" y2="22.513508569990506" /><path d="M 143.74570117128098 25.957352633546492 a86.0,86.0 0 0,1 28.547481713284135,27.462654790039103" fill="none" id="id2" stroke="none" /><text fill="#e1ed5e" style="font-size:6.75px; font-family:Arial;" text-anchor="middle"><textPath startOffset="19.985693538727396" xlink:href="#id2">February</textPath></text><line stroke="#e1ed5e" stroke-width="0.3" x1="172.23445277983987" x2="176.4835382374775" y1="55.19839476539836" y2="52.563006222186495" /><path d="M 173.08426987136738 54.67131705675599 a86.0,86.0 0 0,1 12.851231095245387,41.99856678651699" fill="none" id="id3" stroke="none" /><text fill="#e1ed5e" style="font-size:6.75px; font-family:Arial;" text-anchor="middle"><textPath startOffset="22.20632615414155" xlink:href="#id3">March</textPath></text><line stroke="#e1ed5e" stroke-width="0.3" x1="184.98032266829074" x2="189.97916517819016" y1="98.17113171792111" y2="98.06355123074" /><path d="M 185.9800911702706 98.14961562048488 a86.0,86.0 0 0,1 -9.607161424134198,41.387399972396054" fill="none" id="id4" stroke="none" /><text fill="#e1ed5e" style="font-size:6.75px; font-family:Arial;" text-anchor="middle"><textPath startOffset="21.466115282336823" xlink:href="#id4">April</textPath></text><line stroke="#e1ed5e" stroke-width="0.3" x1="174.80103733775053" x2="179.2010983576182" y1="140.37084112569926" y2="142.7455964860345" /><path d="M 175.68104954172406 140.8457921977663 a86.0,86.0 0 0,1 -30.038265399797805,32.042727171017184" fill="none" id="id5" stroke="none" /><text fill="#e1ed5e" style="font-size:6.75px; font-family:Arial;" text-anchor="middle"><textPath startOffset="22.206326154141568" xlink:href="#id5">May</textPath></text><line stroke="#e1ed5e" stroke-width="0.3" x1="143.8653032363475" x2="146.44561519142675" y1="172.8068346515853" y2="177.08958963109032" /><path d="M 144.38136562736335 173.6633856474863 a86.0,86.0 0 0,1 -40.68145358897372,12.25698825130547" fill="none" id="id6" stroke="none" /><text fill="#e1ed5e" style="font-size:6.75px; font-family:Arial;" text-anchor="middle"><textPath startOffset="21.466115282336833" xlink:href="#id6">June</textPath></text><line stroke="#e1ed5e" stroke-width="0.3" x1="102.19456741930631" x2="102.32365962044197" y1="184.97166512339345" y2="189.96999836594603" /><path d="M 102.22038585953345 185.97133177190398 a86.0,86.0 0 0,1 -42.740103519485714,-10.115201625700543" fill="none" id="id7" stroke="none" /><text fill="#e1ed5e" style="font-size:6.75px; font-family:Arial;" text-anchor="middle"><textPath startOffset="22.20632615414155" xlink:href="#id7">July</textPath></text><line stroke="#e1ed5e" stroke-width="0.3" x1="58.666819895761336" x2="56.23545636021788" y1="174.27360380694188" y2="178.64263932499728" /><path d="M 58.180547188652646 175.14741091055294 a86.0,86.0 0 0,1 -31.652253787137756,-30.449443065178592" fill="none" id="id8" stroke="none" /><text fill="#e1ed5e" style="font-size:6.75px; font-family:Arial;" text-anchor="middle"><textPath startOffset="22.20632615414155" xlink:href="#id8">August</textPath></text><line stroke="#e1ed5e" stroke-width="0.3" x1="26.63291911575756" x2="22.317208475507996" y1="142.92168965132927" y2="145.44649492493687" /><path d="M 25.769776987707644 143.4266507060508 a86.0,86.0 0 0,1 -11.730757126820373,-40.83630448921669" fill="none" id="id9" stroke="none" /><text fill="#e1ed5e" style="font-size:6.75px; font-family:Arial;" text-anchor="middle"><textPath startOffset="21.46611528233685" xlink:href="#id9">September</textPath></text><path d="M 79.76711848015287 105.62410040840567 l -24.424319338720636 6.789187404334052 a46.35035385889063,46.35035385889063 0 0,0 -0.2070578979877127,-0.7705394658409936 l 24.537565313050123 -6.367757005317519" fill="#c0ff1e" stroke="none" /><path d="M 79.67330655649465 105.27499134158121 l -8.728224849052202 2.2650664080751 a30.01734078587488,30.01734078587488 0 0,0 -0.12548489980710908,-0.5012497975679778 l 8.76592106315437 -2.11448877110973" fill="#ff730a" stroke="none" /><path d="M 79.58551787078972 104.9243191809786 l -11.241244811521774 2.7115788239490475 a32.56366052039985,32.56366052039985 0 0,0 -0.12674929438890511,-0.5460326428901726 l 11.286254671841235 -2.5176775237103004" fill="#ff950d" stroke="none" /><path d="M 79.50377843672027 104.57218783832718 l -5.528748495498502 1.233323739902183 a26.664640092175606,26.664640092175606 0 0,0 -0.09607645831625161,-0.44883722775360885 l 5.549158992539194 -1.1379726927324105" fill="#ff4506" stroke="none" /><path d="M 79.4281124754447 104.21870165774334 l -6.983525857154686 1.4321200266774663 a28.128856932801973,28.128856932801973 0 0,0 -0.09318697438728203,-0.47515837477051864 l 7.007142764517635 -1.3116979248389928" fill="#ff5908" stroke="none" /><path d="M 79.29508885075956 103.50808413554451 l -7.118050093535303 1.2060287740021702 a28.219497388170392,28.219497388170392 0 0,0 -0.07702343252838402,-0.47962498787886293 l 7.137755280424978 -1.0833245564300935" fill="#ff5a08" stroke="none" /><path d="M 79.18660465613746 102.79330883721812 l -0.8405950001633254 0.1128139548442286 a21.84813144188102,21.84813144188102 0 0,0 -0.046815854317196655,-0.3731684214379886 l 0.8424123637273703 -0.09832777911883135" fill="#ff0000" stroke="none" /><path d="M 79.1416061653843 102.43462659150553 l -2.6260447809258456 0.3065163360524964 a23.64387281382727,23.64387281382727 0 0,0 -0.043704796487362994,-0.4046521359132346 l 2.6309318789142604 -0.26126787825447967" fill="#ff1a02" stroke="none" /><path d="M 79.10278846688536 102.07522291339032 l -8.219377094933517 0.8162352022025624 a29.259806277028076,29.259806277028076 0 0,0 -0.045457761554409816,-0.5016226108187426 l 8.232209452765002 -0.6746312028352536" fill="#ff6909" stroke="none" /><path d="M 79.07016306316243 101.71520430193888 l -7.435698375064051 0.6093569615147155 a28.460625056352626,28.460625056352626 0 0,0 -0.035810840788232434,-0.4886104707099294 l 7.445085774516619 -0.48127335430802554" fill="#ff5e08" stroke="none" /><path d="M 79.04373962182676 101.35467743843564 l -15.062660667763364 0.9736969383470541 a36.09409924837954,36.09409924837954 0 0,0 -0.034742545582731064,-0.6203514901017143 l 15.077189564233626 -0.7142737319099022" fill="#ffc312" stroke="none" /><line stroke="#e1ed5e" stroke-width="0.3" x1="15.007084014347285" x2="10.007500721073583" y1="101.09737516637583" y2="101.16192664675087" /><path d="M 14.007167355692545 101.11028546245083 a86.0,86.0 0 0,1 10.666146001902534,-42.60595125391555" fill="none" id="id10" stroke="none" /><text fill="#e1ed5e" style="font-size:6.75px; font-family:Arial;" text-anchor="middle"><textPath startOffset="22.20632615414155" xlink:href="#id10">October</textPath></text><path d="M 79.00486145842228 99.54816195383935 l -62.98541562473312 -1.3555141384819447 a84.0,84.0 0 0,0 0.04355322217741975,-1.4453194103000224 l 62.95275070810006 2.4395036962069616" fill="#4dd2ff" stroke="none" /><path d="M 79.03285615573316 98.82574320788736 l -23.403715466250045 -1.3107160446381159 a44.44038980424309,44.44038980424309 0 0,0 0.04934874408421196,-0.7634032287115984 l 23.377686131161422 1.713378337602726" fill="#d6ff1c" stroke="none" /><path d="M 79.12142395522702 97.74499172005258 l -7.575732044500309 -0.8182233525110582 a28.61979038193724,28.61979038193724 0 0,0 0.05711644342944147,-0.48933880687926007 l 7.560525248067278 0.94850589771518" fill="#ff6008" stroke="none" /><path d="M 79.26566170972629 96.67025291283419 l -7.466472277400949 -1.1990478774402156 a28.562137533898124,28.562137533898124 0 0,0 0.08213401507978454,-0.48475960634091436 l 7.444726400800941 1.327393272096958" fill="#ff5f08" stroke="none" /><path d="M 79.32604984820605 96.31383870115002 l -7.623930198012456 -1.3593452743528367 a28.744167562693335,28.744167562693335 0 0,0 0.09104273796410402,-0.48635394667210247 l 7.59940173613849 1.4903772984875119" fill="#ff6109" stroke="none" /><path d="M 79.46518482838121 95.60439243477599 l -30.965304602926263 -6.628320052288963 a52.66677621526357,52.66677621526357 0 0,0 0.19738909079280123,-0.8848565899129506 l 30.846621125131424 7.160354811751873" fill="#7aff26" stroke="none" /><path d="M 79.81627453868168 94.20196356495316 l -5.140085011724034 -1.476555962591238 a26.347961428284034,26.347961428284034 0 0,0 0.12897214561694312,-0.4348299595323299 l 5.113906968995384 1.564815308870107" fill="#ff4006" stroke="none" /><path d="M 80.02781315780177 93.51064311812611 l -7.447974148007488 -2.419993497721131 a28.831263463733066,28.831263463733066 0 0,0 0.15742241393955508,-0.4706729805762204 l 7.40521444029616 2.547839581219673" fill="#ff6309" stroke="none" /><path d="M 80.14247586403 93.16781622104843 l -45.30016383540546 -15.585983550662185 a68.90644765327616,68.90644765327616 0 0,0 0.3955457131877414,-1.118260995940333 l 45.02516504140791 16.363442173029128" fill="#3aff95" stroke="none" /><path d="M 80.65960295795068 91.81776055985345 l -5.905689980444375 -2.4984890110689273 a27.412458302675603,27.412458302675603 0 0,0 0.1875916630545059,-0.4329874222848417 l 5.861807607547188 2.599775577940368" fill="#ff4f07" stroke="none" /><path d="M 80.803312248108 91.48605970444005 l -6.817200612822736 -3.0235027912410017 a28.45759970259284,28.45759970259284 0 0,0 0.20245235525484684,-0.44607692872742816 l 6.764145940604538 3.1404017288105006" fill="#ff5e08" stroke="none" /><path d="M 81.10775173730289 90.83032412892265 l -44.205031678947385 -21.455668310637844 a70.1368550926171,70.1368550926171 0 0,0 0.5365134996936369,-1.0815784768848489 l 43.82915816630033 22.213406376021652" fill="#3cffa3" stroke="none" /><line stroke="#e1ed5e" stroke-width="0.3" x1="26.266209847984243" x2="21.928928074336255" y1="57.711370442889674" y2="55.22380399835377" /><path d="M 25.398753493254645 57.213857153982495 a86.0,86.0 0 0,1 29.58750427330803,-30.492523968695096" fill="none" id="id11" stroke="none" /><text fill="#e1ed5e" style="font-size:6.75px; font-family:Arial;" text-anchor="middle"><textPath startOffset="21.46611528233685" xlink:href="#id11">November</textPath></text><path d="M 81.78341655067845 89.55222093294921 l -6.401673725511626 -3.6715596494566816 a28.37982227072064,28.37982227072064 0 0,0 0.24668866646531748,-0.4216708962953506 l 6.337525384575983 3.781209958105924" fill="#ff5c08" stroke="none" /><path d="M 82.15384107792192 88.93136811851018 l -6.291844388969504 -3.902358468351646 a28.403763058777802,28.403763058777802 0 0,0 0.26127729455829696,-0.4132779341132203 l 6.223739498165244 4.010084050179081" fill="#ff5d08" stroke="none" /><path d="M 82.54541684631803 88.32363383020206 l -18.510373537367585 -12.38264457300714 a43.270245061837585,43.270245061837585 0 0,0 0.41946491710038736,-0.6155130065926502 l 18.294484154598457 12.699435602870206" fill="#e3ff1b" stroke="none" /><path d="M 87.80319425747018 82.90503203632743 l -17.76382524398305 -24.89766828041499 a51.58508416042618,51.58508416042618 0 0,0 0.7272731943742075,-0.5095013496271452 l 17.33262091002518 25.19975447280608" fill="#86ff25" stroke="none" /><line stroke="#e1ed5e" stroke-width="0.3" x1="56.762969772571076" x2="54.21961505331055" y1="26.818313649435495" y2="22.513508569990535" /><path d="M 56.25429882871897 25.957352633546506 a86.0,86.0 0 0,1 42.265352541879196,-11.944610805530505" fill="none" id="id12" stroke="none" /><text fill="#e1ed5e" style="font-size:6.75px; font-family:Arial;" text-anchor="middle"><textPath startOffset="22.20632615414155" xlink:href="#id12">December</textPath></text><path d="M 91.90106846888425 80.62456947434976 l -13.848479699147399 -33.13032778037855 a56.90820252829457,56.90820252829457 0 0,0 0.9070520637595952,-0.37000931152851735 l 13.276143765799423 33.363797978090645" fill="#4eff2b" stroke="none" /></svg>