<?xml version="1.0" encoding="utf-8" ?>
<svg baseProfile="full" height="200mm" version="1.1" viewBox="0,0,200,200" width="200mm" xmlns="http://www.w3.org/2000/svg" xmlns:ev="http://www.w3.org/2001/xml-events" xmlns:xlink="http://www.w3.org/1999/xlink"><defs /><rect fill="#1a1a1a" height="200" width="200" x="0" y="0" /><text alignment-baseline="middle" fill="#e1ed5e" style="dominant-baseline: central; font-size:9.0px; font-family:Arial;" text-anchor="middle" x="100.0" y="100.0">2024</text><line stroke="#e1ed5e" stroke-width="0.3" x1="100.0" x2="100.0" y1="15.0" y2="10.0" /><path d="M 100.0 14.0 a86.0,86.0 0 0,1 42.35913384403234,11.155469271406648" fill="none" id="id13" stroke="none" /><text fill="#e1ed5e" style="font-size:6.75px; font-family:Arial;" text-anchor="middle"><textPath startOffset="22.145653131862478" xlink:href="#id13">January</textPath></text><path d="M 101.80034050326958 79.07731436759882 l 4.878360845820914 -56.69394772442227 a77.90344552943665,77.90344552943665 0 0,0 1.3314086006822228,0.12608577874490937 l -5.850869009888149 56.60185019017218" fill="#45ffef" stroke="none" /><line stroke="#e1ed5e" stroke-width="0.3" x1="143.13028292997686" x2="145.6673583964461" y1="26.7553504044142" y2="22.446841604673864" /><path d="M 143.63769802327073 25.89364864446614 a86.0,86.0 0 0,1 29.32050498858742,28.57503671076993" fill="none" id="id14" stroke="none" /><text fill="#e1ed5e" style="font-size:6.75px; font-family:Arial;" text-anchor="middle"><textPath startOffset="20.669276256404974" xlink:href="#id14">February</textPath></text><line stroke="#e1ed5e" stroke-width="0.3" x1="172.87174338648825" x2="177.1583165268699" y1="56.24261187166439" y2="53.66864786411523" /><path d="M 173.72905801456457 55.72781907015455 a86.0,86.0 0 0,1 12.242430191666344,42.057860355516425" fill="none" id="id15" stroke="none" /><text fill="#e1ed5e" style="font-size:6.75px; font-family:Arial;" text-anchor="middle"><textPath startOffset="22.145653131862474" xlink:href="#id15">March</textPath></text><path d="M 120.98066250479742 99.09900007780936 l 40.1480369185926 -1.7241294516551886 a61.18504063432983,61.18504063432983 0 0,0 0.03605638233144749,1.0497422306161335 l -40.1717179879209 1.034680956474935" fill="#32ff2f" stroke="none" /><line stroke="#e1ed5e" stroke-width="0.3" x1="184.99686870605535" x2="189.99668451229388" y1="99.2704041080226" y2="99.22748670261217" /><path d="M 185.99683186730306 99.26182062694052 a86.0,86.0 0 0,1 -10.086455211305974,41.156179273409016" fill="none" id="id16" stroke="none" /><text fill="#e1ed5e" style="font-size:6.75px; font-family:Arial;" text-anchor="middle"><textPath startOffset="21.40746469413373" xlink:href="#id16">April</textPath></text><path d="M 120.99922638620191 100.18025310272382 l 8.520801611418856 0.0731408338528902 a29.521115518682684,29.521115518682684 0 0,0 -0.008699687746237179,0.5067131967972615 l -8.51829049207395 -0.21940094661922271" fill="#ff3f05" stroke="none" /><path d="M 120.98066250479742 100.90099992219065 l 13.132067755208768 0.5639474932185706 a34.14417134331797,34.14417134331797 0 0,0 -0.030174359497829595,0.5853745131129712 l -13.120451806254366 -0.7892937997082725" fill="#ff820c" stroke="none" /><path d="M 120.96210409425399 101.26102812881392 l 22.780102746575473 1.3703944132486705 a43.82128528353297,43.82128528353297 0 0,0 -0.05161738164619951,0.7505054006776728 l -22.753221403764208 -1.7612432380806868" fill="#faff18" stroke="none" /><path d="M 120.65975698304385 103.76489593502545 l 4.299898654980538 0.7835847720979587 a25.37071316127783,25.37071316127783 0 0,0 -0.08175858224140437,0.4277954501754289 l -4.285813780456974 -0.8572827873067022" fill="#ff0000" stroke="none" /><path d="M 120.592083275326 104.11899336999214 l 61.776249825978006 12.356980109976403 a84.0,84.0 0 0,0 -0.2949691567025421,1.4115341948583637 l -61.555022958451104 -13.415630756120176" fill="#4dd2ff" stroke="none" /><path d="M 120.26092885502905 105.52220625578681 l 13.73218905326106 3.74276919079861 a35.23310708911073,35.23310708911073 0 0,0 -0.16405458762243155,0.5821718560094363 l -13.665915973564049 -3.9779489707110547" fill="#ff910d" stroke="none" /><path d="M 120.05942366710727 106.21446072829308 l 27.46414217307046 8.508461449501688 a49.75192204949582,49.75192204949582 0 0,0 -0.25974124354877787,0.8136357459604434 l -27.314036213744426 -8.978666229153514" fill="#b0ff20" stroke="none" /><path d="M 119.31412917781788 108.2440532568976 l 16.00775563416675 6.832759000236909 a38.40502329784467,38.40502329784467 0 0,0 -0.2640182916456108,0.6041255193533558 l -15.888103460504174 -7.1065465893661095" fill="#ffbd11" stroke="none" /><path d="M 119.16976305983485 108.57439118712176 l 26.007278407403476 11.632724832405083 a49.49032848506049,49.49032848506049 0 0,0 -0.35353895772311483,0.7725464262484312 l -25.803754984825307 -12.077460240868204" fill="#b3ff20" stroke="none" /><path d="M 119.0197475246899 108.90220220490707 l 4.127995773794502 1.932110456861579 a25.55778454141693,25.55778454141693 0 0,0 -0.18939625691599968,0.3957653337039308 l -4.09422025891859 -2.0026882926306135" fill="#ff0300" stroke="none" /><line stroke="#e1ed5e" stroke-width="0.3" x1="174.33088141563837" x2="178.70328620479359" y1="141.23008692659167" y2="143.65538615756765" /><path d="M 175.20536237346943 141.71514677278685 a86.0,86.0 0 0,1 -30.301960400862466,31.631185727798858" fill="none" id="id17" stroke="none" /><text fill="#e1ed5e" style="font-size:6.75px; font-family:Arial;" text-anchor="middle"><textPath startOffset="22.145653131862474" xlink:href="#id17">May</textPath></text><path d="M 118.18653347947321 110.5 l 19.237197774846965 11.106601313761958 a43.21320262752393,43.21320262752393 0 0,0 -0.37642051571731555,0.6392443290730679 l -19.043703548999883 -11.435196811128575" fill="#fffd17" stroke="none" /><path d="M 118.00360718960297 110.81064883170644 l 28.812215851929466 17.300907776882244 a54.607516900276345,54.607516900276345 0 0,0 -0.4894706696273765,0.7995135536874264 l -28.510977217846687 -17.792958446694225" fill="#78ff26" stroke="none" /><path d="M 117.81537515405839 111.11811171558189 l 40.82108279860973 25.47537478056264 a69.1181412885107,69.1181412885107 0 0,0 -0.6368160727156637,1.0011806386472586 l -40.37774903426818 -26.17236909388857" fill="#39ff8e" stroke="none" /><path d="M 115.89218393027572 113.72728997021213 l 16.1344041408461 13.936514019073718 a42.32007082502284,42.32007082502284 0 0,0 -0.4796051728021186,0.5457026467415563 l -15.892787904085395 -14.211428943626567" fill="#fff116" stroke="none" /><path d="M 115.6541949942343 113.99807769240083 l 10.582320279902875 9.462776048114184 a35.196113307634846,35.196113307634846 0 0,0 -0.40660276237437726,0.4469276621695619 l -10.418319816686617 -9.643041285841418" fill="#ff910d" stroke="none" /><path d="M 114.91283532996324 114.78537596483092 l 29.464255474943695 29.212425744792554 a62.49106130948892,62.49106130948892 0 0,0 -0.7618198388039478,0.7553085972559309 l -28.958443716009782 -29.713914352277147" fill="#31ff3d" stroke="none" /><path d="M 114.13192950727249 115.5334660781643 l 15.021699768593113 16.511479460163596 a43.322195633520344,43.322195633520344 0 0,0 -0.554389956263165,0.4957389174286359 l -14.73604478550657 -16.76691390747562" fill="#fffe18" stroke="none" /><path d="M 113.86319453409587 115.77377054828091 l 15.28604927632323 17.392718055093162 a44.15534374225841,44.15534374225841 0 0,0 -0.5736420881434704,0.49549837313811934 l -14.985227708416904 -17.652560560696" fill="#f5ff19" stroke="none" /><path d="M 113.59037401385872 116.0094264158162 l 15.483348294654306 18.23934535877726 a44.925045319295094,44.925045319295094 0 0,0 -0.5922097896819479,0.494042469223727 l -15.167964170810462 -18.50245001191286" fill="#ecff1a" stroke="none" /><path d="M 112.7482090630111 116.68781488649013 l 28.619989004079503 37.464484320329476 a68.14542773145499,68.14542773145499 0 0,0 -0.9356919240839249,0.7021606638115241 l -27.97264409108481 -37.95026401140502" fill="#38ff82" stroke="none" /><path d="M 112.45986205192187 116.90419585922612 l 14.927738483284706 20.25234420776185 a46.15938834977918,46.15938834977918 0 0,0 -0.6418770451265787,0.46466948052542345 l -14.577880427784159 -20.505614459660354" fill="#dcff1b" stroke="none" /><path d="M 112.16784306229584 117.11559508785304 l 14.312527985647433 20.13236301879831 a45.70142704502351,45.70142704502351 0 0,0 -0.6433126749939669,0.4490822093259335 l -13.964820219479709 -20.375090043929365" fill="#e2ff1b" stroke="none" /><line stroke="#e1ed5e" stroke-width="0.3" x1="143.1302829299769" x2="145.66735839644613" y1="173.24464959558577" y2="177.55315839532614" /><path d="M 143.63769802327073 174.10635135553383 a86.0,86.0 0 0,1 -40.68552437913181,11.842963189579606" fill="none" id="id18" stroke="none" /><text fill="#e1ed5e" style="font-size:6.75px; font-family:Arial;" text-anchor="middle"><textPath startOffset="21.407464694133747" xlink:href="#id18">June</textPath></text><line stroke="#e1ed5e" stroke-width="0.3" x1="101.45913802915013" x2="101.54496967792366" y1="184.9874750549273" y2="189.98673829345242" /><path d="M 101.47630435890484 185.9873277026323 a86.0,86.0 0 0,1 -42.54439059252881,-10.42667462771756" fill="none" id="id19" stroke="none" /><text fill="#e1ed5e" style="font-size:6.75px; font-family:Arial;" text-anchor="middle"><textPath startOffset="22.145653131862474" xlink:href="#id19">July</textPath></text><line stroke="#e1ed5e" stroke-width="0.3" x1="58.13341422392154" x2="55.67067388415222" y1="173.97424548756322" y2="178.32567169271397" /><path d="M 57.64086615596768 174.84453072859336 a86.0,86.0 0 0,1 -31.369924170532247,-30.572349798747897" fill="none" id="id20" stroke="none" /><text fill="#e1ed5e" style="font-size:6.75px; font-family:Arial;" text-anchor="middle"><textPath startOffset="22.145653131862474" xlink:href="#id20">August</textPath></text><line stroke="#e1ed5e" stroke-width="0.3" x1="26.387840678322732" x2="22.057713659400548" y1="142.50000000000003" y2="145.00000000000006" /><path d="M 25.521815274538298 143.00000000000003 a86.0,86.0 0 0,1 -11.493303480769221,-40.785679425670985" fill="none" id="id21" stroke="none" /><text fill="#e1ed5e" style="font-size:6.75px; font-family:Arial;" text-anchor="middle"><textPath startOffset="21.40746469413373" xlink:href="#id21">September</textPath></text><line stroke="#e1ed5e" stroke-width="0.3" x1="15.003131293944662" x2="10.003315487706104" y1="100.72959589197737" y2="100.7725132973878" /><path d="M 14.003168132696942 100.73817937305945 a86.0,86.0 0 0,1 10.791469493833604,-42.45332614584628" fill="none" id="id22" stroke="none" /><text fill="#e1ed5e" style="font-size:6.75px; font-family:Arial;" text-anchor="middle"><textPath startOffset="22.145653131862435" xlink:href="#id22">October</textPath></text><line stroke="#e1ed5e" stroke-width="0.3" x1="26.387840678322718" x2="22.05771365940052" y1="57.49999999999999" y2="54.99999999999999" /><path d="M 25.521815274538284 56.99999999999999 a86.0,86.0 0 0,1 29.574782752854787,-30.34633250058573" fill="none" id="id23" stroke="none" /><text fill="#e1ed5e" style="font-size:6.75px; font-family:Arial;" text-anchor="middle"><textPath startOffset="21.40746469413373" xlink:href="#id23">November</textPath></text><line stroke="#e1ed5e" stroke-width="0.3" x1="56.869717070023135" x2="54.33264160355391" y1="26.7553504044142" y2="22.446841604673864" /><path d="M 56.362301976729285 25.89364864446614 a86.0,86.0 0 0,1 42.16139366436587,-11.88097634709845" fill="none" id="id24" stroke="none" /><text fill="#e1ed5e" style="font-size:6.75px; font-family:Arial;" text-anchor="middle"><textPath startOffset="22.145653131862474" xlink:href="#id24">December</textPath></text></svg>