<?xml version="1.0" encoding="utf-8" ?>
<svg baseProfile="full" height="200mm" version="1.1" viewBox="0,0,200,200" width="200mm" xmlns="http://www.w3.org/2000/svg" xmlns:ev="http://www.w3.org/2001/xml-events" xmlns:xlink="http://www.w3.org/1999/xlink"><defs /><rect fill="#1a1a1a" height="200" width="200" x="0" y="0" /><text alignment-baseline="middle" fill="#e1ed5e" style="dominant-baseline: central; font-size:9.0px; font-family:Arial;" text-anchor="middle" x="100.0" y="100.0">2025</text><line stroke="#e1ed5e" stroke-width="0.3" x1="100.0" x2="100.0" y1="15.0" y2="10.0" /><path d="M 100.0 14.0 a86.0,86.0 0 0,1 42.46469731375804,11.215312516191453" fill="none" id="id25" stroke="none" /><text fill="#e1ed5e" style="font-size:6.75px; font-family:Arial;" text-anchor="middle"><textPath startOffset="22.20632615414155" xlink:href="#id25">January</textPath></text><path d="M 106.0581310904928 79.89281104454417 l 1.0979495408034021 -3.644140173053629 a24.80594939469953,24.80594939469953 0 0,0 0.407779836897523,0.12669918029459487 l -1.1605147504116433 3.624700857876513" fill="#ff1602" stroke="none" /><line stroke="#e1ed5e" stroke-width="0.3" x1="143.23703022742887" x2="145.7803849466894" y1="26.81831364943548" y2="22.513508569990506" /><path d="M 143.74570117128098 25.957352633546492 a86.0,86.0 0 0,1 28.547481713284135,27.462654790039103" fill="none" id="id26" stroke="none" /><text fill="#e1ed5e" style="font-size:6.75px; font-family:Arial;" text-anchor="middle"><textPath startOffset="19.985693538727396" xlink:href="#id26">February</textPath></text><path d="M 112.19680574252982 82.90503203632743 l 1.733611853413893 -2.4298197184705286 a23.98486748827571,23.98486748827571 0 0,0 0.3340231825514272,0.24268204746330863 l -1.7751803523191088 2.399618436190545" fill="#ff0a01" stroke="none" /><path d="M 114.16331599549186 84.49514656593476 l 2.6151700273058904 -2.8628767437967553 a24.87752208528738,24.87752208528738 0 0,0 0.313684367566842,0.2915354330960034 l -2.664062278667579 2.8174367246261114" fill="#ff1702" stroke="none" /><path d="M 115.9244219780498 86.31012108654704 l 6.044964306878306 -5.196724220909131 a28.971670847420654,28.971670847420654 0 0,0 0.3218468246784731,0.38096512470507293 l -6.133521745043897 5.091900146574951" fill="#ff5307" stroke="none" /><path d="M 116.15771136456269 86.58626213691792 l 1.7663226841618513 -1.46635800902635 a23.295670193041772,23.295670193041772 0 0,0 0.253480750819081,0.3107374286028433 l -1.7913019270573411 1.4357364108154056" fill="#ff0000" stroke="none" /><line stroke="#e1ed5e" stroke-width="0.3" x1="172.23445277983987" x2="176.4835382374775" y1="55.19839476539836" y2="52.563006222186495" /><path d="M 173.08426987136738 54.67131705675599 a86.0,86.0 0 0,1 12.851231095245387,41.99856678651699" fill="none" id="id27" stroke="none" /><text fill="#e1ed5e" style="font-size:6.75px; font-family:Arial;" text-anchor="middle"><textPath startOffset="22.20632615414155" xlink:href="#id27">March</textPath></text><line stroke="#e1ed5e" stroke-width="0.3" x1="184.98032266829074" x2="189.97916517819016" y1="98.17113171792111" y2="98.06355123074" /><path d="M 185.9800911702706 98.14961562048488 a86.0,86.0 0 0,1 -9.607161424134198,41.387399972396054" fill="none" id="id28" stroke="none" /><text fill="#e1ed5e" style="font-size:6.75px; font-family:Arial;" text-anchor="middle"><textPath startOffset="21.466115282336823" xlink:href="#id28">April</textPath></text><path d="M 120.99824983174949 100.27111621757518 l 4.40870114301128 0.05692238105031768 a25.409068600719817,25.409068600719817 0 0,0 -0.009410959181368765,0.437290293504179 l -4.407068121144904 -0.13280249034461147" fill="#ff1f03" stroke="none" /><path d="M 120.9904718944345 100.63252640178507 l 2.309318194297176 0.06958894184760495 a23.31036645217581,23.31036645217581 0 0,0 -0.015537876799396519,0.400963559188919 l -2.307778184646576 -0.10932974805053015" fill="#ff0000" stroke="none" /><path d="M 120.49622156327973 104.57218783832717 l 29.89768124697084 6.6694153441668975 a51.632538990075254,51.632538990075254 0 0,0 -0.2009721198389246,0.8657826323370368 l -29.778448561201362 -7.183066633852499" fill="#8dff24" stroke="none" /><path d="M 120.41448212921028 104.9243191809786 l 4.635691242213973 1.1182073175623513 a25.768649798233177,25.768649798233177 0 0,0 -0.1077236141989398,0.4303022905027755 l -4.615756313719973 -1.1978374474625226" fill="#ff2503" stroke="none" /><path d="M 118.81262510543309 109.33194174019688 l 6.050823334570941 3.001491313518625 a27.754362525902497,27.754362525902497 0 0,0 -0.21598356396271962,0.42615606206446816 l -5.998261100821953 -3.1052015872857877" fill="#ff4106" stroke="none" /><line stroke="#e1ed5e" stroke-width="0.3" x1="174.80103733775053" x2="179.2010983576182" y1="140.37084112569926" y2="142.7455964860345" /><path d="M 175.68104954172406 140.8457921977663 a86.0,86.0 0 0,1 -30.038265399797805,32.042727171017184" fill="none" id="id29" stroke="none" /><text fill="#e1ed5e" style="font-size:6.75px; font-family:Arial;" text-anchor="middle"><textPath startOffset="22.206326154141568" xlink:href="#id29">May</textPath></text><path d="M 118.12598468904814 110.60418214915192 l 4.4807563307287275 2.621361383236843 a26.191214963463846,26.191214963463846 0 0,0 -0.23100542380629815,0.38717837770650737 l -4.434970031224202 -2.698101854829454" fill="#ff2b04" stroke="none" /><line stroke="#e1ed5e" stroke-width="0.3" x1="143.8653032363475" x2="146.44561519142675" y1="172.8068346515853" y2="177.08958963109032" /><path d="M 144.38136562736335 173.6633856474863 a86.0,86.0 0 0,1 -40.68145358897372,12.25698825130547" fill="none" id="id30" stroke="none" /><text fill="#e1ed5e" style="font-size:6.75px; font-family:Arial;" text-anchor="middle"><textPath startOffset="21.466115282336833" xlink:href="#id30">June</textPath></text><line stroke="#e1ed5e" stroke-width="0.3" x1="102.19456741930631" x2="102.32365962044197" y1="184.97166512339345" y2="189.96999836594603" /><path d="M 102.22038585953345 185.97133177190398 a86.0,86.0 0 0,1 -42.740103519485714,-10.115201625700543" fill="none" id="id31" stroke="none" /><text fill="#e1ed5e" style="font-size:6.75px; font-family:Arial;" text-anchor="middle"><textPath startOffset="22.20632615414155" xlink:href="#id31">July</textPath></text><path d="M 99.09653310690486 120.98055641714683 l -1.0089731833974185 23.430652478185106 a44.452366670302105,44.452366670302105 0 0,0 -0.7641826073922671,-0.03949951199739492 l 1.4121438592031745 -23.40981315942551" fill="#e1ff1b" stroke="none" /><path d="M 96.58105272829116 120.7198165907248 l -10.222163868101898 61.94929130964443 a83.78699967281057,83.78699967281057 0 0,0 -1.4209917195591666,-0.24705762481906765 l 11.287004559133115 -61.76415510630435" fill="#4dd4ff" stroke="none" /><line stroke="#e1ed5e" stroke-width="0.3" x1="58.666819895761336" x2="56.23545636021788" y1="174.27360380694188" y2="178.64263932499728" /><path d="M 58.180547188652646 175.14741091055294 a86.0,86.0 0 0,1 -31.652253787137756,-30.449443065178592" fill="none" id="id32" stroke="none" /><text fill="#e1ed5e" style="font-size:6.75px; font-family:Arial;" text-anchor="middle"><textPath startOffset="22.20632615414155" xlink:href="#id32">August</textPath></text><line stroke="#e1ed5e" stroke-width="0.3" x1="26.63291911575756" x2="22.317208475507996" y1="142.92168965132927" y2="145.44649492493687" /><path d="M 25.769776987707644 143.4266507060508 a86.0,86.0 0 0,1 -11.730757126820373,-40.83630448921669" fill="none" id="id33" stroke="none" /><text fill="#e1ed5e" style="font-size:6.75px; font-family:Arial;" text-anchor="middle"><textPath startOffset="21.46611528233685" xlink:href="#id33">September</textPath></text><path d="M 80.87730276802145 108.67885076344099 l -57.36809169593562 26.03655229032298 a84.0,84.0 0 0,0 -0.5862356610748805,-1.3218066540292166 l 57.80776844174178 -25.045197299801067" fill="#4dd2ff" stroke="none" /><line stroke="#e1ed5e" stroke-width="0.3" x1="15.007084014347285" x2="10.007500721073583" y1="101.09737516637583" y2="101.16192664675087" /><path d="M 14.007167355692545 101.11028546245083 a86.0,86.0 0 0,1 10.666146001902534,-42.60595125391555" fill="none" id="id34" stroke="none" /><text fill="#e1ed5e" style="font-size:6.75px; font-family:Arial;" text-anchor="middle"><textPath startOffset="22.20632615414155" xlink:href="#id34">October</textPath></text><line stroke="#e1ed5e" stroke-width="0.3" x1="26.266209847984243" x2="21.928928074336255" y1="57.711370442889674" y2="55.22380399835377" /><path d="M 25.398753493254645 57.213857153982495 a86.0,86.0 0 0,1 29.58750427330803,-30.492523968695096" fill="none" id="id35" stroke="none" /><text fill="#e1ed5e" style="font-size:6.75px; font-family:Arial;" text-anchor="middle"><textPath startOffset="21.46611528233685" xlink:href="#id35">November</textPath></text><line stroke="#e1ed5e" stroke-width="0.3" x1="56.762969772571076" x2="54.21961505331055" y1="26.818313649435495" y2="22.513508569990535" /><path d="M 56.25429882871897 25.957352633546506 a86.0,86.0 0 0,1 42.265352541879196,-11.944610805530505" fill="none" id="id36" stroke="none" /><text fill="#e1ed5e" style="font-size:6.75px; font-family:Arial;" text-anchor="middle"><textPath startOffset="22.20632615414155" xlink:href="#id36">December</textPath></text></svg>