<?xml version="1.0" encoding="utf-8" ?>
<svg baseProfile="full" height="200mm" version="1.1" viewBox="0,0,200,200" width="200mm" xmlns="http://www.w3.org/2000/svg" xmlns:ev="http://www.w3.org/2001/xml-events" xmlns:xlink="http://www.w3.org/1999/xlink"><defs /><rect fill="#1a1a1a" height="200" width="200" x="0" y="0" /><text alignment-baseline="middle" fill="#e1ed5e" style="dominant-baseline: central; font-size:9.0px; font-family:Arial;" text-anchor="middle" x="100.0" y="100.0">2023</text><line stroke="#e1ed5e" stroke-width="0.3" x1="100.0" x2="100.0" y1="15.0" y2="10.0" /><path d="M 100.0 14.0 a86.0,86.0 0 0,1 42.46469731375804,11.215312516191453" fill="none" id="id1" stroke="none" /><text fill="#e1ed5e" style="font-size:6.75px; font-family:Arial;" text-anchor="middle"><textPath startOffset="22.20632615414155" xlink:href="#id1">January</textPath></text><line stroke="#e1ed5e" stroke-width="0.3" x1="143.23703022742887" x2="145.7803849466894" y1="26.81831364943548" y2="22.513508569990506" /><path d="M 143.74570117128098 25.957352633546492 a86.0,86.0 0 0,1 28.547481713284135,27.462654790039103" fill="none" id="id2" stroke="none" /><text fill="#e1ed5e" style="font-size:6.75px; font-family:Arial;" text-anchor="middle"><textPath startOffset="19.985693538727396" xlink:href="#id2">February</textPath></text><line stroke="#e1ed5e" stroke-width="0.3" x1="172.23445277983987" x2="176.4835382374775" y1="55.19839476539836" y2="52.563006222186495" /><path d="M 173.08426987136738 54.67131705675599 a86.0,86.0 0 0,1 12.851231095245387,41.99856678651699" fill="none" id="id3" stroke="none" /><text fill="#e1ed5e" style="font-size:6.75px; font-family:Arial;" text-anchor="middle"><textPath startOffset="22.20632615414155" xlink:href="#id3">March</textPath></text><line stroke="#e1ed5e" stroke-width="0.3" x1="184.98032266829074" x2="189.97916517819016" y1="98.17113171792111" y2="98.06355123074" /><path d="M 185.9800911702706 98.14961562048488 a86.0,86.0 0 0,1 -9.607161424134198,41.387399972396054" fill="none" id="id4" stroke="none" /><text fill="#e1ed5e" style="font-size:6.75px; font-family:Arial;" text-anchor="middle"><textPath startOffset="21.466115282336823" xlink:href="#id4">April</textPath></text><line stroke="#e1ed5e" stroke-width="0.3" x1="174.80103733775053" x2="179.2010983576182" y1="140.37084112569926" y2="142.7455964860345" /><path d="M 175.68104954172406 140.8457921977663 a86.0,86.0 0 0,1 -30.038265399797805,32.042727171017184" fill="none" id="id5" stroke="none" /><text fill="#e1ed5e" style="font-size:6.75px; font-family:Arial;" text-anchor="middle"><textPath startOffset="22.206326154141568" xlink:href="#id5">May</textPath></text><line stroke="#e1ed5e" stroke-width="0.3" x1="143.8653032363475" x2="146.44561519142675" y1="172.8068346515853" y2="177.08958963109032" /><path d="M 144.38136562736335 173.6633856474863 a86.0,86.0 0 0,1 -40.68145358897372,12.25698825130547" fill="none" id="id6" stroke="none" /><text fill="#e1ed5e" style="font-size:6.75px; font-family:Arial;" text-anchor="middle"><textPath startOffset="21.466115282336833" xlink:href="#id6">June</textPath></text><line stroke="#e1ed5e" stroke-width="0.3" x1="102.19456741930631" x2="102.32365962044197" y1="184.97166512339345" y2="189.96999836594603" /><path d="M 102.22038585953345 185.97133177190398 a86.0,86.0 0 0,1 -42.740103519485714,-10.115201625700543" fill="none" id="id7" stroke="none" /><text fill="#e1ed5e" style="font-size:6.75px; font-family:Arial;" text-anchor="middle"><textPath startOffset="22.20632615414155" xlink:href="#id7">July</textPath></text><line stroke="#e1ed5e" stroke-width="0.3" x1="58.666819895761336" x2="56.23545636021788" y1="174.27360380694188" y2="178.64263932499728" /><path d="M 58.180547188652646 175.14741091055294 a86.0,86.0 0 0,1 -31.652253787137756,-30.449443065178592" fill="none" id="id8" stroke="none" /><text fill="#e1ed5e" style="font-size:6.75px; font-family:Arial;" text-anchor="middle"><textPath startOffset="22.20632615414155" xlink:href="#id8">August</textPath></text><line stroke="#e1ed5e" stroke-width="0.3" x1="26.63291911575756" x2="22.317208475507996" y1="142.92168965132927" y2="145.44649492493687" /><path d="M 25.769776987707644 143.4266507060508 a86.0,86.0 0 0,1 -11.730757126820373,-40.83630448921669" fill="none" id="id9" stroke="none" /><text fill="#e1ed5e" style="font-size:6.75px; font-family:Arial;" text-anchor="middle"><textPath startOffset="21.46611528233685" xlink:href="#id9">September</textPath></text><path d="M 79.76711848015287 105.62410040840567 l -30.24355139110283 8.406749654689056 a52.39021886675677,52.39021886675677 0 0,0 -0.23403939108409003,-0.8709476390144157 l 30.383778858528697 -7.8849110824991016" fill="#8cff24" stroke="none" /><path d="M 79.67330655649465 105.27499134158121 l -14.074915231332362 3.6525889557551237 a35.541136298408595,35.541136298408595 0 0,0 -0.1485766497189276,-0.5934898598111774 l 14.135703195346348 -3.4097712565465548" fill="#ffa00e" stroke="none" /><path d="M 79.58551787078972 104.9243191809786 l -5.50669971095843 1.3283093266305113 a26.664640092175606,26.664640092175606 0 0,0 -0.10378821860951731,-0.44711692937975395 l 5.528748495498502 -1.233323739902183" fill="#ff2103" stroke="none" /><path d="M 79.50377843672027 104.57218783832718 l -6.957839580363429 1.5521177604443601 a28.128856932801973,28.128856932801973 0 0,0 -0.1013522380668162,-0.47348391435073006 l 6.983525857154686 -1.4321200266774663" fill="#ff3605" stroke="none" /><path d="M 79.35854240842038 103.8639653848113 l -7.09623567478281 1.3283756192202836 a28.219497388170392,28.219497388170392 0 0,0 -0.08526797641330398,-0.47822809448489967 l 7.118050093535303 -1.2060287740021702" fill="#ff3805" stroke="none" /><path d="M 79.18660465613746 102.79330883721812 l -3.46097452935748 0.46448792128920274 a24.492004255708288,24.492004255708288 0 0,0 -0.05248110604888789,-0.4183260518304664 l 3.468457144653216 -0.40484411517132773" fill="#ff0000" stroke="none" /><path d="M 79.1416061653843 102.43462659150553 l -8.204109158280117 0.9575973334636603 a29.259806277028076,29.259806277028076 0 0,0 -0.05408563515234788,-0.5007658093763158 l 8.219377094933517 -0.8162352022025624" fill="#ff4706" stroke="none" /><path d="M 79.10278846688536 102.07522291339032 l -7.424107617707438 0.7372600031027083 a28.460625056352626,28.460625056352626 0 0,0 -0.044216161079537616,-0.4879216530394266 l 7.435698375064051 -0.6093569615147155" fill="#ff3b05" stroke="none" /><path d="M 79.07016306316243 101.71520430193888 l -15.0436683798584 1.2328316173672864 a36.09409924837954,36.09409924837954 0 0,0 -0.04541572924062926,-0.6196615425234717 l 15.062660667763364 -0.9736969383470541" fill="#ffa70f" stroke="none" /><line stroke="#e1ed5e" stroke-width="0.3" x1="15.007084014347285" x2="10.007500721073583" y1="101.09737516637583" y2="101.16192664675087" /><path d="M 14.007167355692545 101.11028546245083 a86.0,86.0 0 0,1 10.666146001902534,-42.60595125391555" fill="none" id="id10" stroke="none" /><text fill="#e1ed5e" style="font-size:6.75px; font-family:Arial;" text-anchor="middle"><textPath startOffset="22.20632615414155" xlink:href="#id10">October</textPath></text><path d="M 79.00486145842228 99.54816195383935 l -62.98541562473312 -1.3555141384819447 a84.0,84.0 0 0,0 0.04355322217741975,-1.4453194103000224 l 62.95275070810006 2.4395036962069616" fill="#4dd2ff" stroke="none" /><path d="M 79.03285615573316 98.82574320788736 l -23.403715466250045 -1.3107160446381159 a44.44038980424309,44.44038980424309 0 0,0 0.04934874408421196,-0.7634032287115984 l 23.377686131161422 1.713378337602726" fill="#eaff1a" stroke="none" /><path d="M 79.08570108090925 98.10471618934814 l -7.588693988030866 -0.6876983500688744 a28.61979038193724,28.61979038193724 0 0,0 0.04868481784832879,-0.4902494717377535 l 7.575732044500309 0.8182233525110582" fill="#ff3e05" stroke="none" /><path d="M 79.21141760316559 97.0276538004421 l -7.486005677125492 -1.070347179019822 a28.562137533898124,28.562137533898124 0 0,0 0.0737775062852417,-0.48610158602830156 l 7.466472277400949 1.1990478774402156" fill="#ff3d05" stroke="none" /><path d="M 79.26566170972629 96.67025291283419 l -7.646199524830862 -1.22791044687629 a28.744167562693335,28.744167562693335 0 0,0 0.08265746529818278,-0.48784903916071876 l 7.623930198012456 1.3593452743528367" fill="#ff3f06" stroke="none" /><path d="M 79.46518482838121 95.60439243477599 l -30.965304602926263 -6.628320052288963 a52.66677621526357,52.66677621526357 0 0,0 0.19738909079280123,-0.8848565899129506 l 30.846621125131424 7.160354811751873" fill="#89ff24" stroke="none" /><path d="M 79.71946130924805 94.55025226153421 l -5.164739936331592 -1.3878590809139608 a26.347961428284034,26.347961428284034 0 0,0 0.1214681540411971,-0.4369855782583344 l 5.140085011724034 1.476555962591238" fill="#ff1c02" stroke="none" /><path d="M 79.91906864156998 93.8553929516997 l -7.488526860238316 -2.2914303179214697 a28.831263463733066,28.831263463733066 0 0,0 0.14929722846262436,-0.47331301337324627 l 7.447974148007488 2.419993497721131" fill="#ff4106" stroke="none" /><path d="M 80.14247586403 93.16781622104843 l -45.30016383540546 -15.585983550662185 a68.90644765327616,68.90644765327616 0 0,0 0.3955457131877414,-1.118260995940333 l 45.02516504140791 16.363442173029128" fill="#39ff8e" stroke="none" /><path d="M 80.52162464483688 92.15188598940014 l -5.947822369945126 -2.3964620879817025 a27.412458302675603,27.412458302675603 0 0,0 0.18011070261455087,-0.43615235263391333 l 5.905689980444375 2.4984890110689273" fill="#ff2c04" stroke="none" /><path d="M 80.65960295795068 91.81776055985345 l -6.86823520137212 -2.9057079245419177 a28.45759970259284,28.45759970259284 0 0,0 0.1947438787067027,-0.4494957221124849 l 6.817200612822736 3.0235027912410017" fill="#ff3b05" stroke="none" /><path d="M 80.95270993114464 91.15688171328213 l -6.721360837584036 -3.1205378150699126 a28.41042831179748,28.41042831179748 0 0,0 0.20975257710431044,-0.4417924209580199 l 6.666650066637974 3.2357726516684644" fill="#ff3b05" stroke="none" /><path d="M 81.10775173730289 90.83032412892265 l -37.53838161230941 -18.219895658969378 a62.726426780819615,62.726426780819615 0 0,0 0.47982725645474117,-0.967302469556685 l 37.219194342901254 18.863357717025025" fill="#31ff44" stroke="none" /><path d="M 81.6062741919709 89.86733742301443 l -6.463925112362964 -3.560821378444558 a28.37982227072064,28.37982227072064 0 0,0 0.23939374555890766,-0.42585476107733905 l 6.401673725511626 3.6715596494566816" fill="#ff3a05" stroke="none" /><line stroke="#e1ed5e" stroke-width="0.3" x1="26.266209847984243" x2="21.928928074336255" y1="57.711370442889674" y2="55.22380399835377" /><path d="M 25.398753493254645 57.213857153982495 a86.0,86.0 0 0,1 29.58750427330803,-30.492523968695096" fill="none" id="id11" stroke="none" /><text fill="#e1ed5e" style="font-size:6.75px; font-family:Arial;" text-anchor="middle"><textPath startOffset="21.46611528233685" xlink:href="#id11">November</textPath></text><path d="M 81.96595687620814 89.24020034530311 l -6.358084870492193 -3.7934765334902387 a28.403763058777802,28.403763058777802 0 0,0 0.2541246832364718,-0.4177141616543327 l 6.291844388969504 3.902358468351646" fill="#ff3b05" stroke="none" /><path d="M 82.54541684631803 88.32363383020206 l -18.510373537367585 -12.38264457300714 a43.270245061837585,43.270245061837585 0 0,0 0.41946491710038736,-0.6155130065926502 l 18.294484154598457 12.699435602870206" fill="#f9ff18" stroke="none" /><path d="M 87.80319425747018 82.90503203632743 l -17.76382524398305 -24.89766828041499 a51.58508416042618,51.58508416042618 0 0,0 0.7272731943742075,-0.5095013496271452 l 17.33262091002518 25.19975447280608" fill="#95ff23" stroke="none" /><line stroke="#e1ed5e" stroke-width="0.3" x1="56.762969772571076" x2="54.21961505331055" y1="26.818313649435495" y2="22.513508569990535" /><path d="M 56.25429882871897 25.957352633546506 a86.0,86.0 0 0,1 42.265352541879196,-11.944610805530505" fill="none" id="id12" stroke="none" /><text fill="#e1ed5e" style="font-size:6.75px; font-family:Arial;" text-anchor="middle"><textPath startOffset="22.20632615414155" xlink:href="#id12">December</textPath></text><path d="M 91.90106846888425 80.62456947434976 l -13.848479699147399 -33.13032778037855 a56.90820252829457,56.90820252829457 0 0,0 0.9070520637595952,-0.37000931152851735 l 13.276143765799423 33.363797978090645" fill="#5bff2a" stroke="none" /></svg>