<?xml version="1.0" encoding="utf-8" ?>
<svg baseProfile="full" height="200mm" version="1.1" viewBox="0,0,200,200" width="200mm" xmlns="http://www.w3.org/2000/svg" xmlns:ev="http://www.w3.org/2001/xml-events" xmlns:xlink="http://www.w3.org/1999/xlink"><defs /><rect fill="#1a1a1a" height="200" width="200" x="0" y="0" /><text alignment-baseline="middle" fill="#e1ed5e" style="dominant-baseline: central; font-size:9.0px; font-family:Arial;" text-anchor="middle" x="100.0" y="100.0">2024</text><line stroke="#e1ed5e" stroke-width="0.3" x1="100.0" x2="100.0" y1="15.0" y2="10.0" /><path d="M 100.0 14.0 a86.0,86.0 0 0,1 42.35913384403234,11.155469271406648" fill="none" id="id13" stroke="none" /><text fill="#e1ed5e" style="font-size:6.75px; font-family:Arial;" text-anchor="middle"><textPath startOffset="22.145653131862478" xlink:href="#id13">January</textPath></text><path d="M 101.80034050326958 79.07731436759882 l 3.716561439444794 -43.192077548545875 a64.35168268813528,64.35168268813528 0 0,0 1.0998022387467075,0.1041524154693895 l -4.457463241576514 43.1219133775713" fill="#35ff62" stroke="none" /><line stroke="#e1ed5e" stroke-width="0.3" x1="143.13028292997686" x2="145.6673583964461" y1="26.7553504044142" y2="22.446841604673864" /><path d="M 143.63769802327073 25.89364864446614 a86.0,86.0 0 0,1 29.32050498858742,28.57503671076993" fill="none" id="id14" stroke="none" /><text fill="#e1ed5e" style="font-size:6.75px; font-family:Arial;" text-anchor="middle"><textPath startOffset="20.669276256404974" xlink:href="#id14">February</textPath></text><line stroke="#e1ed5e" stroke-width="0.3" x1="172.87174338648825" x2="177.1583165268699" y1="56.24261187166439" y2="53.66864786411523" /><path d="M 173.72905801456457 55.72781907015455 a86.0,86.0 0 0,1 12.242430191666344,42.057860355516425" fill="none" id="id15" stroke="none" /><text fill="#e1ed5e" style="font-size:6.75px; font-family:Arial;" text-anchor="middle"><textPath startOffset="22.145653131862474" xlink:href="#id15">March</textPath></text><path d="M 120.98066250479742 99.09900007780936 l 30.586635674741334 -1.3135217420667216 a51.61482682077822,51.61482682077822 0 0,0 0.030416649405267067,0.885547559958773 l -30.60467701114345 0.7882679175438285" fill="#86ff25" stroke="none" /><line stroke="#e1ed5e" stroke-width="0.3" x1="184.99686870605535" x2="189.99668451229388" y1="99.2704041080226" y2="99.22748670261217" /><path d="M 185.99683186730306 99.26182062694052 a86.0,86.0 0 0,1 -10.086455211305974,41.156179273409016" fill="none" id="id16" stroke="none" /><text fill="#e1ed5e" style="font-size:6.75px; font-family:Arial;" text-anchor="middle"><textPath startOffset="21.40746469413373" xlink:href="#id16">April</textPath></text><path d="M 120.99922638620191 100.18025310272382 l 6.491541667994298 0.05572207783263048 a27.49178081709974,27.49178081709974 0 0,0 -0.008101655526716134,0.4718808181440921 l -6.489628580868914 -0.16714981194579362" fill="#ff4f07" stroke="none" /><path d="M 120.98066250479742 100.90099992219065 l 10.004617981672144 0.42964134335474624 a31.013839056182064,31.013839056182064 0 0,0 -0.02740797893963845,0.5317074693285685 l -9.995768413275934 -0.6013206060600453" fill="#ff7f0b" stroke="none" /><path d="M 120.96210409425399 101.26102812881392 l 17.354938293882185 1.0440299916464102 a38.38631305964308,38.38631305964308 0 0,0 -0.0452154919320601,0.6574233292557446 l -17.334458840785057 -1.3417967450564983" fill="#ffdf14" stroke="none" /><path d="M 120.65975698304385 103.76489593502545 l 3.2758621265811665 0.5969712041720332 a24.329811900239935,24.329811900239935 0 0,0 -0.07840421806508958,0.4102439993855667 l -3.2651316162339175 -0.6531177685909144" fill="#ff2203" stroke="none" /><path d="M 120.592083275326 104.11899336999214 l 47.0640108907529 9.414120282649243 a68.99632050294163,68.99632050294163 0 0,0 -0.24228317231346436,1.1594126870155872 l -46.89547000761507 -10.22064942095024" fill="#3aff96" stroke="none" /><path d="M 120.26092885502905 105.52220625578681 l 10.461818206465152 2.8514150738112 a31.84344078732777,31.84344078732777 0 0,0 -0.14827141227232105,0.5261629347079276 l -10.411328302118251 -3.0305859324221363" fill="#ff8a0c" stroke="none" /><path d="M 120.05942366710727 106.21446072829308 l 20.923456667889614 6.482140360590577 a42.90454707560628,42.90454707560628 0 0,0 -0.2239929625277259,0.7016547648194758 l -20.809098989584633 -6.840364159101436" fill="#e8ff1a" stroke="none" /><path d="M 119.31412917781788 108.2440532568976 l 12.19545031667043 5.205512553884599 a34.25995359626221,34.25995359626221 0 0,0 -0.23552269061767958,0.5389220076459459 l -12.104293744035784 -5.41409663130639" fill="#ffaa0f" stroke="none" /><path d="M 119.16976305983485 108.57439118712176 l 19.813550315094773 8.862349037756228 a42.705252971476995,42.705252971476995 0 0,0 -0.30506911323887276,0.6666310686361455 l -19.658496737000842 -9.201169088607063" fill="#ebff1a" stroke="none" /><path d="M 119.0197475246899 108.90220220490707 l 3.1448985427591976 1.4719713132478305 a24.47233154973333,24.47233154973333 0 0,0 -0.18135249501050277,0.37895696501385756 l -3.1191667897887827 -1.5257407803267917" fill="#ff2403" stroke="none" /><line stroke="#e1ed5e" stroke-width="0.3" x1="174.33088141563837" x2="178.70328620479359" y1="141.23008692659167" y2="143.65538615756765" /><path d="M 175.20536237346943 141.71514677278685 a86.0,86.0 0 0,1 -30.301960400862466,31.631185727798858" fill="none" id="id17" stroke="none" /><text fill="#e1ed5e" style="font-size:6.75px; font-family:Arial;" text-anchor="middle"><textPath startOffset="22.145653131862474" xlink:href="#id17">May</textPath></text><path d="M 118.18653347947321 110.5 l 14.65578904730207 8.461523751646215 a37.92304750329244,37.92304750329244 0 0,0 -0.33033916096904525,0.5609881143640962 l -14.50837617620326 -8.71186303430386" fill="#ffd914" stroke="none" /><path d="M 118.00360718960297 110.81064883170644 l 21.950481689351463 13.180633565890087 a46.60376432466176,46.60376432466176 0 0,0 -0.4177295915653179,0.6823298942243805 l -21.72098413333074 -13.555500576239025" fill="#bdff1f" stroke="none" /><path d="M 117.81537515405839 111.11811171558189 l 31.099393226653813 19.408321474610172 a57.658630655383945,57.658630655383945 0 0,0 -0.5312345217568529,0.8351889039105199 l -30.76164101327107 -19.939324053199364" fill="#47ff2c" stroke="none" /><path d="M 115.89218393027572 113.72728997021213 l 12.291937020127587 10.617482437352402 a37.24261829306685,37.24261829306685 0 0,0 -0.4220633858554047,0.4802306559963351 l -12.107862570313598 -10.82692537116003" fill="#ffd013" stroke="none" /><path d="M 115.6541949942343 113.99807769240083 l 8.062102155857103 7.209181461156316 a31.8152572096717,31.8152572096717 0 0,0 -0.3675454546368244,0.40399683913272944 l -7.937159000378399 -7.346515875846717" fill="#ff8a0c" stroke="none" /><path d="M 114.91283532996324 114.78537596483092 l 22.4472357008881 22.255380138340428 a52.6098139145624,52.6098139145624 0 0,0 -0.6413589258374751,0.6358772585555351 l -22.06188485492066 -22.637437407124622" fill="#7bff26" stroke="none" /><path d="M 114.13192950727249 115.5334660781643 l 11.444227247497764 12.579210478535707 a38.006083427869946,38.006083427869946 0 0,0 -0.4863601814541472,0.4349062733020036 l -11.22660203922024 -12.773812281721098" fill="#ffda14" stroke="none" /><path d="M 113.86319453409587 115.77377054828091 l 11.645620956986804 13.250578891897636 a38.6408142795114,38.6408142795114 0 0,0 -0.5020003359106276,0.43361593387180886 l -11.41644114131332 -13.448538958234161" fill="#ffe215" stroke="none" /><path d="M 113.59037401385872 116.0094264158162 l 11.795932495379407 13.895578819106575 a39.22720862209985,39.22720862209985 0 0,0 -0.5170999117039544,0.4313831376391045 l -11.555658249513558 -14.09602414065755" fill="#ffe915" stroke="none" /><path d="M 112.7482090630111 116.68781488649013 l 21.804034365562938 28.542180903428015 a56.91757237535216,56.91757237535216 0 0,0 -0.7815243748994252,0.5864704607785493 l -21.310857001752748 -28.91227039147058" fill="#4fff2b" stroke="none" /><path d="M 112.45986205192187 116.90419585922612 l 11.372643184568705 15.429174659232244 a40.16758836339646,40.16758836339646 0 0,0 -0.5585570747425429,0.40435224742027515 l -11.106105099452195 -15.622127678025596" fill="#fff517" stroke="none" /><path d="M 112.16784306229584 117.11559508785304 l 10.903947308038981 15.3377674274891 a39.818692211634584,39.818692211634584 0 0,0 -0.5605048038476389,0.3912758840824289 l -10.639047413017584 -15.52268812737665" fill="#fff016" stroke="none" /><path d="M 111.27062007382361 117.71928675628689 l 8.79640757139225 13.829413746691417 a37.38991979050613,37.38991979050613 0 0,0 -0.5445323187434344,0.3398284403320666 l -8.5577111238591 -13.97837798386503" fill="#ffd213" stroke="none" /><line stroke="#e1ed5e" stroke-width="0.3" x1="143.1302829299769" x2="145.66735839644613" y1="173.24464959558577" y2="177.55315839532614" /><path d="M 143.63769802327073 174.10635135553383 a86.0,86.0 0 0,1 -40.68552437913181,11.842963189579606" fill="none" id="id18" stroke="none" /><text fill="#e1ed5e" style="font-size:6.75px; font-family:Arial;" text-anchor="middle"><textPath startOffset="21.407464694133747" xlink:href="#id18">June</textPath></text><path d="M 110.34350942703117 118.27599006163325 l 15.715155958287406 27.767174781133598 a52.905832101973424,52.905832101973424 0 0,0 -0.7942319547897615,0.4405470769645565 l -15.23617981534155 -28.032854773531298" fill="#78ff26" stroke="none" /><path d="M 109.71004243097381 118.62028667847754 l 8.001698294658057 15.344311543474427 a38.305348084968884,38.305348084968884 0 0,0 -0.5856573587080603,0.2990408203302285 l -7.737113714236415 -15.479410315477493" fill="#ffdd14" stroke="none" /><path d="M 108.73861861582097 119.09545874513695 l 7.171534052147454 15.67109615977457 a38.23409862772091,38.23409862772091 0 0,0 -0.599158543441858,0.2679959954925409 l -6.901462105849969 -15.791895906176961" fill="#ffdd14" stroke="none" /><path d="M 108.07796709384702 119.3841803445677 l 18.95228219435111 45.47857793036439 a70.26956515885385,70.26956515885385 0 0,0 -1.1174384666136605,0.4544524963430567 l -18.16878926654701 -45.79721768328674" fill="#3cffa4" stroke="none" /><path d="M 107.74402155503746 119.51999308798841 l 1.4327757494599385 3.6115308470315974 a24.88535730754602,24.88535730754602 0 0,0 -0.3984355897407768,0.15412344548306023 l -1.3705678972256323 -3.635594180652698" fill="#ff2a04" stroke="none" /><path d="M 106.38641147887787 120.00534299687104 l 9.512560295465493 29.797959639556606 a52.279501307653724,52.279501307653724 0 0,0 -0.8572826659090821,0.26558836129845226 l -8.999636996684787 -29.956864588661702" fill="#7fff26" stroke="none" /><path d="M 105.3480935250658 120.30758222061773 l 5.659639769687306 21.490574056591274 a43.22332773471291,43.22332773471291 0 0,0 -0.719142948556789,0.18280332533650814 l -5.2898915279051195 -21.58456261376305" fill="#e5ff1a" stroke="none" /><path d="M 103.94208987418118 120.62667999033965 l 6.349747898428041 33.22456415264049 a54.82589188042962,54.82589188042962 0 0,0 -0.9259447405749287,0.1687379765749424 l -5.778468424302055 -33.328670303146794" fill="#64ff29" stroke="none" /><path d="M 103.2317021107853 120.74984581791261 l 2.880323021515815 18.49374000245157 a39.71669522075282,39.71669522075282 0 0,0 -0.6745689558797026,0.09913840645653663 l -2.5624289600284267 -18.540459482206987" fill="#ffef16" stroke="none" /><path d="M 102.51750503828377 120.84855314841334 l 0.33160901041813584 2.746198308666892 a23.766147083275833,23.766147083275833 0 0,0 -0.40545510748631475,0.045432090492265764 l -0.2844180013310218 -2.751486159666129" fill="#ff1a02" stroke="none" /><path d="M 100.72087961077811 120.9876233191556 l 0.13159158096961357 3.8311453009211336 a24.83340457830271,24.83340457830271 0 0,0 -0.4261727798245205,0.010976699069356655 l -0.06580548707434924 -3.8328397173405353" fill="#ff2a04" stroke="none" /><line stroke="#e1ed5e" stroke-width="0.3" x1="101.45913802915013" x2="101.54496967792366" y1="184.9874750549273" y2="189.98673829345242" /><path d="M 101.47630435890484 185.9873277026323 a86.0,86.0 0 0,1 -42.54439059252881,-10.42667462771756" fill="none" id="id19" stroke="none" /><text fill="#e1ed5e" style="font-size:6.75px; font-family:Arial;" text-anchor="middle"><textPath startOffset="22.145653131862474" xlink:href="#id19">July</textPath></text><path d="M 100.36049292484886 120.99690560180557 l 0.05948860684074495 3.464913112349574 a24.465423750492263,24.465423750492263 0 0,0 -0.4199815316895968,0.003605036337124202 l -4.2439201037295664e-16 -3.4654237504922634" fill="#ff2403" stroke="none" /><path d="M 100.0 121.0 l 1.1683396830325746e-16 0.9540217504720694 a21.95402175047207,21.95402175047207 0 0,0 -0.37686997681061873,-0.003234975488821216 l 0.01637705196176646 -0.9538811731776831" fill="#ff0000" stroke="none" /><path d="M 93.95794788825049 120.11202640906438 l -10.629705973864162 35.38283406248924 a57.945034786618514,57.945034786618514 0 0,0 -0.9501864527310059,-0.2943701919380421 l 11.235533059466801 -35.19514728274454" fill="#44ff2d" stroke="none" /><path d="M 93.61358852112213 120.00534299687104 l -0.7801990751366473 2.443962490605541 a23.56547524882446,23.56547524882446 0 0,0 -0.38431616424986953,-0.12633235667791068 l 0.8220379770342604 -2.430209212525609" fill="#ff1702" stroke="none" /><path d="M 92.25597844496254 119.51999308798841 l -11.445941040293405 28.851248463624568 a52.03875165350037,52.03875165350037 0 0,0 -0.8275289980907151,-0.33654883934527746 l 11.939524499574562 -28.6505123677" fill="#81ff25" stroke="none" /><path d="M 91.92203290615298 119.3841803445677 l -5.340729412982631 12.815806366882565 a34.88410182532977,34.88410182532977 0 0,0 -0.5507783142601186,-0.23509451105461066 l 5.559942802413181 -12.72223720616855" fill="#ffb210" stroke="none" /><path d="M 91.59046798132341 119.24265499422711 l -1.8565694204417993 4.248194162416164 a25.63616260009357,25.63616260009357 0 0,0 -0.40173892923354415,-0.1796927131332778 l 1.9292217525309785 -4.215697698373031" fill="#ff3505" stroke="none" /><path d="M 91.26138138417905 119.09545874513695 l -26.215855847462862 57.28637623541087 a84.0,84.0 0 0,0 -1.3060451445140404,-0.6112950737178937 l 27.19538970584839 -56.82790493012245" fill="#4dd2ff" stroke="none" /><path d="M 90.6110303473126 118.78422872680471 l -5.339726238689646 10.683029418180872 a32.943190271190886,32.943190271190886 0 0,0 -0.5036743631423497,-0.257179718642406 l 5.522327823545578 -10.58979174786563" fill="#ff990e" stroke="none" /><line stroke="#e1ed5e" stroke-width="0.3" x1="58.13341422392154" x2="55.67067388415222" y1="173.97424548756322" y2="178.32567169271397" /><path d="M 57.64086615596768 174.84453072859336 a86.0,86.0 0 0,1 -31.369924170532247,-30.572349798747897" fill="none" id="id20" stroke="none" /><text fill="#e1ed5e" style="font-size:6.75px; font-family:Arial;" text-anchor="middle"><textPath startOffset="22.145653131862474" xlink:href="#id20">August</textPath></text><path d="M 88.72937992617639 117.7192867562869 l -4.425593452011504 6.957767978096141 a29.245993732686628,29.245993732686628 0 0,0 -0.4213015858599597,-0.27308259793307116 l 4.544380670128473 -6.880771538459175" fill="#ff6709" stroke="none" /><path d="M 86.13680546590413 115.77377054828092 l -10.575143820540813 12.032572415399693 a37.01925297125182,37.01925297125182 0 0,0 -0.4737318073451526,-0.4236139033033187 l 10.780140654709337 -11.849262982212991" fill="#ffcd13" stroke="none" /><path d="M 84.1078160697243 113.72728997021213 l -13.640937862864785 11.782717235763956 a39.02519379192654,39.02519379192654 0 0,0 -0.43356142246880747,-0.5107342654935642 l 13.841193848840705 -11.546816187820836" fill="#ffe615" stroke="none" /><path d="M 83.8745106332314 113.45245675266167 l -17.033269686526808 14.209759381729851 a43.182189655230445,43.182189655230445 0 0,0 -0.46997270466398333,-0.5732902831971949 l 17.274689210429422 -13.91526681683416" fill="#e5ff1a" stroke="none" /><line stroke="#e1ed5e" stroke-width="0.3" x1="26.387840678322732" x2="22.057713659400548" y1="142.50000000000003" y2="145.00000000000006" /><path d="M 25.521815274538298 143.00000000000003 a86.0,86.0 0 0,1 -11.493303480769221,-40.785679425670985" fill="none" id="id21" stroke="none" /><text fill="#e1ed5e" style="font-size:6.75px; font-family:Arial;" text-anchor="middle"><textPath startOffset="21.40746469413373" xlink:href="#id21">September</textPath></text><path d="M 81.1358732173502 109.22738970284198 l -1.8436996987105294 0.9018459116094144 a23.05245088304493,23.05245088304493 0 0,0 -0.17083045296486354,-0.3569699439964023 l 1.858909409635305 -0.8700634655479074" fill="#ff1001" stroke="none" /><line stroke="#e1ed5e" stroke-width="0.3" x1="15.003131293944662" x2="10.003315487706104" y1="100.72959589197737" y2="100.7725132973878" /><path d="M 14.003168132696942 100.73817937305945 a86.0,86.0 0 0,1 10.791469493833604,-42.45332614584628" fill="none" id="id22" stroke="none" /><text fill="#e1ed5e" style="font-size:6.75px; font-family:Arial;" text-anchor="middle"><textPath startOffset="22.145653131862435" xlink:href="#id22">October</textPath></text><line stroke="#e1ed5e" stroke-width="0.3" x1="26.387840678322718" x2="22.05771365940052" y1="57.49999999999999" y2="54.99999999999999" /><path d="M 25.521815274538284 56.99999999999999 a86.0,86.0 0 0,1 29.574782752854787,-30.34633250058573" fill="none" id="id23" stroke="none" /><text fill="#e1ed5e" style="font-size:6.75px; font-family:Arial;" text-anchor="middle"><textPath startOffset="21.40746469413373" xlink:href="#id23">November</textPath></text><path d="M 83.42222388311158 87.10902102172516 l -0.9556171680556543 -0.743093689878844 a22.21053393336183,22.21053393336183 0 0,0 0.23663057306036941,-0.29897499895083623 l 0.9427201643537233 0.7593886327443632" fill="#ff0400" stroke="none" /><path d="M 83.64595745247003 86.82634096563983 l -17.163661149498594 -13.82583047021233 a43.03962005674914,43.03962005674914 0 0,0 0.46842105060623224,-0.571397517542164 l 16.923793279653733 14.118430269452986" fill="#e7ff1a" stroke="none" /><line stroke="#e1ed5e" stroke-width="0.3" x1="56.869717070023135" x2="54.33264160355391" y1="26.7553504044142" y2="22.446841604673864" /><path d="M 56.362301976729285 25.89364864446614 a86.0,86.0 0 0,1 42.16139366436587,-11.88097634709845" fill="none" id="id24" stroke="none" /><text fill="#e1ed5e" style="font-size:6.75px; font-family:Arial;" text-anchor="middle"><textPath startOffset="22.145653131862474" xlink:href="#id24">December</textPath></text><path d="M 90.93487009805054 81.0573650232925 l -1.0630200259646414 -2.2213030086251706 a23.462559366132947,23.462559366132947 0 0,0 0.36479954450008684,-0.170744606634871 l 1.024731767593032 2.2392238468305843" fill="#ff1602" stroke="none" /></svg>